<svg width="43" height="24" viewBox="0 0 43 24" fill="none" xmlns="http://www.w3.org/2000/svg">
<path d="M41.3682 9.40453C36.0532 9.17029 37.032 7.53458 33.9232 9.07686C30.8145 10.6191 24.6035 14.4025 27.1542 8.48074C29.7049 2.55768 17.3799 18.5832 20.4602 9.91775C23.5417 1.25358 -10.0499 34.1956 3.13607 20.0834C3.13607 20.0834 9.74461 12.6496 5.03939 11.5837C0.334178 10.5178 4.2444 4.84874 8.02903 2.4682C11.8124 0.0876589 14.1041 0.0165983 15.3212 0.806164C16.2211 1.39044 16.1602 4.39079 14.8693 7.46746C16.2793 5.93571 18.1865 4.12234 20.6272 2.21422C29.2323 -4.51024 16.717 10.1901 20.0368 7.8833C23.3579 5.57645 24.9725 5.66725 26.7308 6.44629C28.4891 7.22401 26.4343 2.57216 32.4239 2.39319C38.4148 2.21422 32.0678 6.18047 32.0678 6.18047C36.4856 5.50145 38.6142 3.4341 41.0458 4.02496C43.4774 4.61582 37.3026 6.68053 37.3026 6.68053C37.3026 6.68053 46.6846 9.63877 41.3682 9.40453Z" fill="white"/>
</svg>
