<svg width="160" height="900" viewBox="0 0 160 900" fill="none" xmlns="http://www.w3.org/2000/svg">
<rect width="160" height="900" fill="url(#paint0_linear)"/>
<path d="M40.9346 160V154.162C40.9346 154.03 40.9346 153.898 40.9346 153.766C40.9391 153.633 40.9619 153.066 41.0029 152.063C40.6794 153.289 40.4401 154.144 40.2852 154.627L38.5488 160H37.1133L35.377 154.627L34.6455 152.063C34.7002 153.121 34.7275 153.82 34.7275 154.162V160H32.9365V150.368H35.6367L37.3594 155.755L37.5098 156.274L37.8379 157.566L38.2686 156.021L40.0391 150.368H42.7256V160H40.9346ZM51.4072 160L50.5527 157.539H46.8818L46.0273 160H44.0107L47.5244 150.368H49.9033L53.4033 160H51.4072ZM48.7139 151.852L48.6729 152.002C48.6273 152.166 48.5726 152.353 48.5088 152.562C48.445 152.772 48.0531 153.925 47.333 156.021H50.1016L49.1514 153.253L48.8574 152.323L48.7139 151.852ZM60.9297 160V155.871H56.7324V160H54.7158V150.368H56.7324V154.203H60.9297V150.368H62.9463V160H60.9297ZM64.8262 160V150.368H66.6172V155.967C66.6172 156.454 66.599 157.081 66.5625 157.847L70.7529 150.368H73.0225V160H71.2314V154.319C71.2314 153.964 71.2497 153.385 71.2861 152.583L67.123 160H64.8262ZM83.3926 155.01C83.3926 154.317 83.2126 153.777 82.8525 153.39C82.4925 153.002 81.9365 152.809 81.1846 152.809H80.8838V157.286H81.2324C81.9251 157.286 82.4583 157.09 82.832 156.698C83.2057 156.306 83.3926 155.743 83.3926 155.01ZM78.9834 160.075V158.715H78.4434C77.6276 158.715 76.9167 158.56 76.3105 158.25C75.7044 157.936 75.2419 157.496 74.9229 156.931C74.6038 156.361 74.4443 155.712 74.4443 154.982C74.4443 153.839 74.7975 152.952 75.5039 152.323C76.2103 151.694 77.2174 151.38 78.5254 151.38H78.9834V150.3H80.8838V151.38H81.3418C82.6452 151.38 83.6501 151.694 84.3564 152.323C85.0674 152.952 85.4229 153.839 85.4229 154.982C85.4229 155.716 85.2633 156.366 84.9443 156.931C84.6253 157.496 84.1628 157.936 83.5566 158.25C82.9505 158.56 82.2396 158.715 81.4238 158.715H80.8838V160.075H78.9834ZM76.4746 155.01C76.4746 155.739 76.6592 156.302 77.0283 156.698C77.402 157.09 77.9375 157.286 78.6348 157.286H78.9834V152.809H78.6826C77.9307 152.809 77.3747 153.002 77.0146 153.39C76.6546 153.777 76.4746 154.317 76.4746 155.01ZM86.8447 160V150.368H94.4189V151.927H88.8613V154.347H94.002V155.905H88.8613V158.441H94.6992V160H86.8447ZM100.681 158.551C101.897 158.551 102.743 157.94 103.217 156.719L104.974 157.382C104.595 158.312 104.039 159.004 103.306 159.46C102.576 159.911 101.701 160.137 100.681 160.137C99.1312 160.137 97.9326 159.699 97.085 158.824C96.2419 157.945 95.8203 156.716 95.8203 155.14C95.8203 153.558 96.2282 152.344 97.0439 151.496C97.8597 150.648 99.0423 150.225 100.592 150.225C101.722 150.225 102.643 150.452 103.354 150.908C104.064 151.359 104.563 152.025 104.851 152.904L103.073 153.39C102.923 152.907 102.627 152.524 102.185 152.241C101.747 151.954 101.23 151.811 100.633 151.811C99.7214 151.811 99.0286 152.093 98.5547 152.658C98.0853 153.223 97.8506 154.05 97.8506 155.14C97.8506 156.247 98.0921 157.092 98.5752 157.676C99.0628 158.259 99.7646 158.551 100.681 158.551ZM110.292 151.927V160H108.275V151.927H105.165V150.368H113.409V151.927H110.292Z" fill="white" fill-opacity="0.4"/>
<path d="M42.3018 123.14C42.3018 124.142 42.1035 125.024 41.707 125.785C41.3105 126.546 40.7432 127.13 40.0049 127.535C39.2666 127.936 38.4053 128.137 37.4209 128.137C35.9079 128.137 34.7207 127.692 33.8594 126.804C33.0026 125.91 32.5742 124.689 32.5742 123.14C32.5742 121.595 33.0026 120.389 33.8594 119.523C34.7161 118.658 35.9079 118.225 37.4346 118.225C38.9613 118.225 40.153 118.662 41.0098 119.537C41.8711 120.412 42.3018 121.613 42.3018 123.14ZM40.2441 123.14C40.2441 122.101 39.998 121.287 39.5059 120.699C39.0137 120.107 38.3232 119.811 37.4346 119.811C36.5322 119.811 35.835 120.104 35.3428 120.692C34.8506 121.276 34.6045 122.091 34.6045 123.14C34.6045 124.197 34.8551 125.031 35.3564 125.642C35.8623 126.248 36.5505 126.551 37.4209 126.551C38.3232 126.551 39.0182 126.255 39.5059 125.662C39.998 125.07 40.2441 124.229 40.2441 123.14ZM53.9434 128V123.871H49.7461V128H47.7295V118.368H49.7461V122.203H53.9434V118.368H55.96V128H53.9434ZM64.6553 128L63.8008 125.539H60.1299L59.2754 128H57.2588L60.7725 118.368H63.1514L66.6514 128H64.6553ZM61.9619 119.852L61.9209 120.002C61.8753 120.166 61.8206 120.353 61.7568 120.562C61.693 120.772 61.3011 121.925 60.5811 124.021H63.3496L62.3994 121.253L62.1055 120.323L61.9619 119.852ZM72.1064 126.551C73.3232 126.551 74.1686 125.94 74.6426 124.719L76.3994 125.382C76.0212 126.312 75.4652 127.004 74.7314 127.46C74.0023 127.911 73.1273 128.137 72.1064 128.137C70.557 128.137 69.3584 127.699 68.5107 126.824C67.6676 125.945 67.2461 124.716 67.2461 123.14C67.2461 121.558 67.654 120.344 68.4697 119.496C69.2855 118.648 70.4681 118.225 72.0176 118.225C73.1478 118.225 74.0684 118.452 74.7793 118.908C75.4902 119.359 75.9893 120.025 76.2764 120.904L74.499 121.39C74.3486 120.907 74.0524 120.524 73.6104 120.241C73.1729 119.954 72.6556 119.811 72.0586 119.811C71.1471 119.811 70.4544 120.093 69.9805 120.658C69.5111 121.223 69.2764 122.05 69.2764 123.14C69.2764 124.247 69.5179 125.092 70.001 125.676C70.4886 126.259 71.1904 126.551 72.1064 126.551Z" fill="white"/>
<path d="M38.877 192V188.261C37.8242 188.639 36.833 188.828 35.9033 188.828C34.8096 188.828 34.0098 188.571 33.5039 188.056C33.0026 187.541 32.752 186.739 32.752 185.649V182.368H34.6934V185.438C34.6934 186.158 34.8369 186.654 35.124 186.928C35.4157 187.197 35.9033 187.331 36.5869 187.331C37.307 187.331 38.0703 187.21 38.877 186.969V182.368H40.8936V192H38.877ZM47.1279 183.927V192H45.1113V183.927H42.001V182.368H50.2451V183.927H47.1279ZM60.3486 187.14C60.3486 188.142 60.1504 189.024 59.7539 189.785C59.3574 190.546 58.79 191.13 58.0518 191.535C57.3135 191.936 56.4521 192.137 55.4678 192.137C53.9548 192.137 52.7676 191.692 51.9062 190.804C51.0495 189.91 50.6211 188.689 50.6211 187.14C50.6211 185.595 51.0495 184.389 51.9062 183.523C52.763 182.658 53.9548 182.225 55.4814 182.225C57.0081 182.225 58.1999 182.662 59.0566 183.537C59.918 184.412 60.3486 185.613 60.3486 187.14ZM58.291 187.14C58.291 186.101 58.0449 185.287 57.5527 184.699C57.0605 184.107 56.3701 183.811 55.4814 183.811C54.5791 183.811 53.8818 184.104 53.3896 184.692C52.8975 185.276 52.6514 186.091 52.6514 187.14C52.6514 188.197 52.902 189.031 53.4033 189.642C53.9092 190.248 54.5973 190.551 55.4678 190.551C56.3701 190.551 57.0651 190.255 57.5527 189.662C58.0449 189.07 58.291 188.229 58.291 187.14ZM73.2959 190.332H74.5605V194.789H72.8516V192H66.6719V194.789H64.9629V190.332H66.0293C66.3574 189.735 66.6491 188.999 66.9043 188.124C67.1595 187.244 67.3532 186.34 67.4854 185.41L67.9023 182.368H73.2959V190.332ZM71.3477 190.332V184.036H69.5566L69.3447 185.636C69.2126 186.565 69.0371 187.456 68.8184 188.309C68.6042 189.156 68.3786 189.831 68.1416 190.332H71.3477ZM75.7568 192V182.368H83.3311V183.927H77.7734V186.347H82.9141V187.905H77.7734V190.441H83.6113V192H75.7568ZM91.1035 184.036H88.3213L87.9863 186.415C87.7402 188.129 87.501 189.352 87.2686 190.086C87.0361 190.815 86.7422 191.335 86.3867 191.645C86.0312 191.954 85.5322 192.109 84.8896 192.109C84.5752 192.109 84.3496 192.071 84.2129 191.993V190.305C84.2767 190.337 84.3747 190.353 84.5068 190.353C84.7666 190.353 84.9808 190.193 85.1494 189.874C85.318 189.555 85.4753 189.038 85.6211 188.322C85.7715 187.602 85.9242 186.695 86.0791 185.602L86.5371 182.368H93.0449V192H91.1035V184.036ZM101.733 192L100.879 189.539H97.208L96.3535 192H94.3369L97.8506 182.368H100.229L103.729 192H101.733ZM99.04 183.852L98.999 184.002C98.9535 184.166 98.8988 184.353 98.835 184.562C98.7712 184.772 98.3792 185.925 97.6592 188.021H100.428L99.4775 185.253L99.1836 184.323L99.04 183.852ZM105.042 192V182.368H112.616V183.927H107.059V186.347H112.199V187.905H107.059V190.441H112.896V192H105.042ZM122.378 192V186.162C122.378 186.03 122.378 185.898 122.378 185.766C122.382 185.633 122.405 185.066 122.446 184.063C122.123 185.289 121.883 186.144 121.729 186.627L119.992 192H118.557L116.82 186.627L116.089 184.063C116.144 185.121 116.171 185.82 116.171 186.162V192H114.38V182.368H117.08L118.803 187.755L118.953 188.274L119.281 189.566L119.712 188.021L121.482 182.368H124.169V192H122.378Z" fill="white" fill-opacity="0.4"/>
<path d="M33.9365 214.368H35.9531V218.463C36.1901 218.463 36.443 218.324 36.7119 218.046C36.9854 217.763 37.3385 217.276 37.7715 216.583L39.1797 214.368H41.2305L39.4189 217.137C38.8538 217.998 38.4642 218.508 38.25 218.668L41.5654 224H39.3711L36.8145 219.625C36.7233 219.684 36.5889 219.739 36.4111 219.789C36.2334 219.839 36.0785 219.864 35.9463 219.864V224H33.9365V214.368ZM51.8467 219.14C51.8467 220.142 51.6484 221.024 51.252 221.785C50.8555 222.546 50.2881 223.13 49.5498 223.535C48.8115 223.936 47.9502 224.137 46.9658 224.137C45.4528 224.137 44.2656 223.692 43.4043 222.804C42.5475 221.91 42.1191 220.689 42.1191 219.14C42.1191 217.595 42.5475 216.389 43.4043 215.523C44.2611 214.658 45.4528 214.225 46.9795 214.225C48.5062 214.225 49.6979 214.662 50.5547 215.537C51.416 216.412 51.8467 217.613 51.8467 219.14ZM49.7891 219.14C49.7891 218.101 49.543 217.287 49.0508 216.699C48.5586 216.107 47.8682 215.811 46.9795 215.811C46.0771 215.811 45.3799 216.104 44.8877 216.692C44.3955 217.276 44.1494 218.091 44.1494 219.14C44.1494 220.197 44.4001 221.031 44.9014 221.642C45.4072 222.248 46.0954 222.551 46.9658 222.551C47.8682 222.551 48.5632 222.255 49.0508 221.662C49.543 221.07 49.7891 220.229 49.7891 219.14ZM59.5918 224V219.871H55.3945V224H53.3779V214.368H55.3945V218.203H59.5918V214.368H61.6084V224H59.5918ZM67.8428 215.927V224H65.8262V215.927H62.7158V214.368H70.96V215.927H67.8428ZM77.9736 224L77.1191 221.539H73.4482L72.5938 224H70.5771L74.0908 214.368H76.4697L79.9697 224H77.9736ZM75.2803 215.852L75.2393 216.002C75.1937 216.166 75.139 216.353 75.0752 216.562C75.0114 216.772 74.6195 217.925 73.8994 220.021H76.668L75.7178 217.253L75.4238 216.323L75.2803 215.852ZM81.2822 214.368H83.2988V218.463C83.5358 218.463 83.7887 218.324 84.0576 218.046C84.3311 217.763 84.6842 217.276 85.1172 216.583L86.5254 214.368H88.5762L86.7646 217.137C86.1995 217.998 85.8099 218.508 85.5957 218.668L88.9111 224H86.7168L84.1602 219.625C84.069 219.684 83.9346 219.739 83.7568 219.789C83.5791 219.839 83.4242 219.864 83.292 219.864V224H81.2822V214.368ZM94.5303 215.927V224H92.5137V215.927H89.4033V214.368H97.6475V215.927H94.5303ZM107.095 221.054C107.095 221.637 106.953 222.152 106.671 222.599C106.393 223.041 105.983 223.385 105.44 223.631C104.903 223.877 104.267 224 103.533 224H98.7412V214.368H100.758V218.203H103.752C104.823 218.203 105.648 218.454 106.227 218.955C106.805 219.452 107.095 220.151 107.095 221.054ZM105.058 221.081C105.058 220.657 104.898 220.331 104.579 220.104C104.265 219.871 103.793 219.755 103.164 219.755H100.758V222.428H103.205C104.44 222.428 105.058 221.979 105.058 221.081ZM108.558 224V214.368H110.574V224H108.558Z" fill="white" fill-opacity="0.4"/>
<path d="M123.392 52.2023C111.634 51.6794 113.8 48.0276 106.923 51.4708C100.045 54.914 86.3057 63.3604 91.9482 50.1399C97.5908 36.9165 70.3261 72.694 77.1401 53.3481C83.957 34.0051 9.64703 107.549 38.8165 76.0432C38.8165 76.0432 53.4356 59.4471 43.0269 57.0674C32.6183 54.6878 41.2683 42.0314 49.6405 36.7167C58.0098 31.4021 63.0795 31.2435 65.7719 33.0062C67.7626 34.3106 67.6279 41.009 64.7723 47.8777C67.8915 44.4581 72.1105 40.4097 77.5096 36.1497C96.5454 21.1371 68.8596 53.9562 76.2035 48.8061C83.5503 43.656 87.122 43.8587 91.0116 45.5979C94.9013 47.3342 90.3557 36.9488 103.606 36.5493C116.859 36.1497 102.818 45.0045 102.818 45.0045C112.591 43.4886 117.3 38.8731 122.679 40.1922C128.058 41.5114 114.398 46.1209 114.398 46.1209C114.398 46.1209 135.153 52.7253 123.392 52.2023Z" fill="white"/>
<defs>
<linearGradient id="paint0_linear" x1="80" y1="0" x2="80" y2="900" gradientUnits="userSpaceOnUse">
<stop stop-color="#FDA8A8"/>
<stop offset="1" stop-color="#004135"/>
</linearGradient>
</defs>
</svg>
