<svg width="59" height="32" viewBox="0 0 59 32" fill="none" xmlns="http://www.w3.org/2000/svg">
<path d="M56.7592 12.4322C49.457 12.1104 50.8018 9.86312 46.5308 11.982C42.2598 14.1009 33.7267 19.2987 37.231 11.163C40.7353 3.02555 23.8025 25.0425 28.0344 13.1373C32.268 1.23389 -13.8824 46.4917 4.23341 27.1035C4.23341 27.1035 13.3126 16.8905 6.84831 15.4261C0.383982 13.9617 5.7561 6.17315 10.9557 2.90261C16.1535 -0.367935 19.302 -0.465562 20.9741 0.619194C22.2104 1.42191 22.1268 5.54399 20.3533 9.77092C22.2905 7.66649 24.9107 5.17517 28.2638 2.55368C40.0861 -6.68483 22.8917 13.5115 27.4527 10.3422C32.0154 7.17293 34.2337 7.29768 36.6493 8.36797C39.065 9.43645 36.242 3.04543 44.4709 2.79955C52.7016 2.55368 43.9817 8.00277 43.9817 8.00277C50.0512 7.06988 52.9756 4.22962 56.3163 5.04138C59.6569 5.85314 51.1736 8.68978 51.1736 8.68978C51.1736 8.68978 64.0631 12.754 56.7592 12.4322Z" fill="white"/>
</svg>
